<svg width="165" height="44" viewBox="0 0 165 44" fill="none" xmlns="http://www.w3.org/2000/svg">
<path fill-rule="evenodd" clip-rule="evenodd" d="M45.512 26.1818L48.5899 34.0495C48.7365 34.46 49.1035 35.0762 49.1035 35.7604C49.1035 36.991 48.1501 37.2656 45.512 37.2656H44.2663V38.0857H56.9476V37.2656C54.6756 37.2656 53.7222 36.855 52.7697 34.528L43.1672 10.6522H39.1359L39.5757 11.6101L31.1461 33.0228C29.68 36.7165 29.1664 37.1967 26.1623 37.2647V38.0848H36.8639V37.2647H36.1309C33.5647 37.2647 32.3928 36.8542 32.3928 35.6898C32.3928 35.0753 32.9792 33.7749 33.2724 32.9539L35.9842 26.181L45.512 26.1818ZM44.7062 24.335H36.7164L40.6748 14.2788L44.7062 24.335Z" fill="white"/>
<path fill-rule="evenodd" clip-rule="evenodd" d="M77.4711 20.2298H76.5915C76.2982 22.6937 75.5652 23.4459 73.8787 23.4459H65.6695V12.8415H75.3448C77.0313 12.8415 78.2042 13.6626 78.7897 17.2883H79.5956L79.2295 11.3363H57.0932V12.1574H58.1195C61.1983 12.1574 61.7848 13.1832 61.7848 15.5783V33.7077C61.7848 36.3068 61.1983 37.2655 57.4602 37.2655H56.2145V38.0856H80.6956L81.4287 31.6543H80.549C79.4499 35.3498 78.4236 36.5125 75.1982 36.5125H68.1609C66.4016 36.5125 65.6695 36.1019 65.6695 34.1854V25.0191H73.4389C75.3448 25.0191 76.2245 25.3616 76.5905 28.3711H77.4702L77.4711 20.2298ZM111.556 30.0812C111.556 28.2343 112.508 27.4821 114.78 27.3453V26.5914H102.319V27.3453H104.079C106.791 27.3453 107.744 28.1654 107.744 30.6294V36.034C105.178 37.2646 102.832 37.6751 100.707 37.6751C95.3566 37.6751 88.7592 33.7749 88.7592 24.9502C88.7592 18.0404 92.8643 11.746 101.001 11.746C105.325 11.746 109.21 13.4569 110.456 18.7926H111.334V11.8148H110.749C110.433 12.0388 110.046 12.1592 109.649 12.1574C108.695 12.1574 105.397 10.6522 100.486 10.6522C89.2709 10.6522 84.4346 18.7926 84.4346 25.2248C84.4346 31.5184 89.1252 38.7698 99.2404 38.7698C101.146 38.7698 107.01 38.2233 111.556 36.034V30.0812ZM129.44 37.2655C126.289 37.2655 125.556 36.3765 125.556 33.8437V15.6462C125.556 12.7727 126.508 12.1574 129.44 12.1574V11.3363H118.225V12.1574C120.791 12.2942 121.67 12.9104 121.67 15.2357V33.5709C121.67 36.4445 121.084 37.1287 118.225 37.2646V38.0848H129.44V37.2655ZM133.619 31.5184L134.644 38.0856H135.377C135.598 37.812 135.892 37.6072 136.331 37.6072C136.989 37.6072 140.216 38.7698 142.707 38.7698C148.132 38.7698 152.089 35.6226 152.089 31.3815C152.089 23.5139 137.356 21.871 137.356 15.7831C137.356 13.32 139.483 11.678 142.489 11.678C145.64 11.678 148.644 13.6617 149.892 16.8098H150.698L149.892 11.3363H149.159C148.866 11.6789 148.719 11.7468 148.353 11.7468C146.74 11.7468 145.934 10.653 142.05 10.653C137.357 10.653 133.913 13.3209 133.913 16.9466C133.913 24.4726 148.644 26.3195 148.644 32.5451C148.644 35.8971 145.42 37.608 142.341 37.608C138.75 37.608 135.525 35.3507 134.499 31.5192L133.619 31.5184ZM2.26569 29.9452L3.43763 38.0177H4.46391C4.68429 37.744 5.05035 37.4712 5.56395 37.4712C6.37077 37.4712 10.3283 38.9058 13.48 38.9058C20.1503 38.9058 25.135 35.0073 25.135 29.8075C25.135 20.025 6.80967 17.9725 6.80967 10.4473C6.80967 7.43695 9.44865 5.45412 13.1867 5.45412C17.1443 5.45412 20.8095 7.9163 22.4223 11.7477H23.3757L22.4223 4.97477H21.4698C21.1028 5.38527 20.8843 5.52211 20.4435 5.52211C18.4638 5.52211 17.5113 4.15375 12.6741 4.15375C6.88344 4.15375 2.55891 7.43782 2.55891 11.8854C2.55891 21.1885 20.8843 23.5156 20.8843 31.1776C20.8843 35.4195 16.7792 37.4729 12.9673 37.4729C8.56899 37.4729 4.53768 34.6674 3.3648 29.9469H2.26569V29.9452Z" fill="white"/>
<path fill-rule="evenodd" clip-rule="evenodd" d="M33.2715 4.90588H48.8841V6.75274H33.2715V4.90588Z" fill="#D3A971"/>
<path fill-rule="evenodd" clip-rule="evenodd" d="M155.683 38.3593H156.122V34.8705H157.294V34.5977H154.51V34.8705H155.683V38.3593ZM157.88 38.3593H158.32V34.9384L159.859 38.3593H160.226L161.692 34.9384V38.3593H162.059V34.5977H161.546L160.007 37.8817L158.54 34.5977H157.88V38.3593Z" fill="white"/>
</svg>
