<svg width="24" height="16" viewBox="0 0 24 16" fill="none" xmlns="http://www.w3.org/2000/svg">
<path d="M12.006 1.80356e-06C9.336 1.80356e-06 6.668 0.784002 4.361 2.353H0L1.963 4.488C1.06861 5.30288 0.441617 6.36924 0.1644 7.547C-0.112816 8.72476 -0.0272945 9.95883 0.409731 11.0871C0.846756 12.2153 1.61484 13.185 2.61309 13.8687C3.61134 14.5525 4.79306 14.9182 6.003 14.918C7.51474 14.9189 8.97074 14.3472 10.078 13.318L12 15.41L13.922 13.32C15.0283 14.3487 16.4834 14.9197 17.994 14.918C19.585 14.918 21.1108 14.2861 22.2359 13.1614C23.3611 12.0366 23.9935 10.511 23.994 8.92C23.9951 8.08561 23.8215 7.26023 23.4844 6.49694C23.1474 5.73364 22.6544 5.04933 22.037 4.488L24 2.353H19.65C17.3962 0.818551 14.7325 -0.00140357 12.006 1.80356e-06ZM12 1.96C13.531 1.96 15.063 2.263 16.504 2.863C13.943 3.843 12 6.135 12 8.805C12 6.134 10.058 3.843 7.496 2.863C8.92298 2.26768 10.4538 1.96011 12 1.96ZM6.002 4.862C6.53504 4.862 7.06285 4.96699 7.55531 5.17097C8.04777 5.37496 8.49523 5.67394 8.87215 6.05086C9.24906 6.42777 9.54804 6.87523 9.75203 7.36769C9.95601 7.86015 10.061 8.38797 10.061 8.921C10.061 9.45404 9.95601 9.98185 9.75203 10.4743C9.54804 10.9668 9.24906 11.4142 8.87215 11.7911C8.49523 12.1681 8.04777 12.467 7.55531 12.671C7.06285 12.875 6.53504 12.98 6.002 12.98C4.92549 12.98 3.89306 12.5524 3.13185 11.7911C2.37064 11.0299 1.943 9.99751 1.943 8.921C1.943 7.84449 2.37064 6.81207 3.13185 6.05086C3.89306 5.28965 4.92549 4.862 6.002 4.862ZM17.994 4.864C18.5268 4.86381 19.0545 4.96856 19.5469 5.17229C20.0392 5.37601 20.4866 5.67472 20.8635 6.05136C21.2404 6.42799 21.5395 6.87517 21.7436 7.36738C21.9477 7.85958 22.0528 8.38716 22.053 8.92C22.0532 9.45284 21.9484 9.9805 21.7447 10.4729C21.541 10.9652 21.2423 11.4126 20.8656 11.7895C20.489 12.1664 20.0418 12.4655 19.5496 12.6696C19.0574 12.8737 18.5298 12.9788 17.997 12.979C16.9209 12.9794 15.8887 12.5523 15.1275 11.7916C14.3663 11.031 13.9384 9.99912 13.938 8.923C13.9376 7.84689 14.3647 6.81469 15.1254 6.05348C15.886 5.29227 16.9179 4.8644 17.994 4.864ZM6.002 6.794C5.43762 6.794 4.89635 7.0182 4.49728 7.41728C4.0982 7.81636 3.874 8.35762 3.874 8.922C3.874 9.48638 4.0982 10.0276 4.49728 10.4267C4.89635 10.8258 5.43762 11.05 6.002 11.05C6.56638 11.05 7.10765 10.8258 7.50672 10.4267C7.9058 10.0276 8.13 9.48638 8.13 8.922C8.13 8.35762 7.9058 7.81636 7.50672 7.41728C7.10765 7.0182 6.56638 6.794 6.002 6.794ZM17.994 6.794C17.4296 6.794 16.8884 7.0182 16.4893 7.41728C16.0902 7.81636 15.866 8.35762 15.866 8.922C15.866 9.48638 16.0902 10.0276 16.4893 10.4267C16.8884 10.8258 17.4296 11.05 17.994 11.05C18.5584 11.05 19.0996 10.8258 19.4987 10.4267C19.8978 10.0276 20.122 9.48638 20.122 8.922C20.122 8.35762 19.8978 7.81636 19.4987 7.41728C19.0996 7.0182 18.5584 6.794 17.994 6.794Z" fill="#B0B0B0"/>
</svg>
